Coordinates
version=1
nRows=10
nColumns=63
inDegrees=yes

Units are S.I. units (second, meters, Newtons, ...)
If the header above contains a line with 'inDegrees', this indicates whether rotational values are in degrees (yes) or radians (no).

endheader
time	pelvis_tilt	pelvis_list	pelvis_rotation	pelvis_tx	pelvis_ty	pelvis_tz	hip_flexion_r	hip_adduction_r	hip_rotation_r	knee_angle_r	knee_angle_r_beta	ankle_angle_r	subtalar_angle_r	mtp_angle_r	hip_flexion_l	hip_adduction_l	hip_rotation_l	knee_angle_l	knee_angle_l_beta	ankle_angle_l	subtalar_angle_l	mtp_angle_l	L5_S1_Flex_Ext	L5_S1_Lat_Bending	L5_S1_axial_rotation	L4_L5_Flex_Ext	L4_L5_Lat_Bending	L4_L5_axial_rotation	L3_L4_Flex_Ext	L3_L4_Lat_Bending	L3_L4_axial_rotation	L2_L3_Flex_Ext	L2_L3_Lat_Bending	L2_L3_axial_rotation	L1_L2_Flex_Ext	L1_L2_Lat_Bending	L1_L2_axial_rotation	L1_T12_Flex_Ext	L1_T12_Lat_Bending	L1_T12_axial_rotation	Abs_r3	Abs_r2	Abs_r1	Abs_t1	Abs_t2	neck_flexion	neck_bending	neck_rotation	arm_flex_r	arm_add_r	arm_rot_r	elbow_flex_r	pro_sup_r	wrist_flex_r	wrist_dev_r	arm_flex_l	arm_add_l	arm_rot_l	elbow_flex_l	pro_sup_l	wrist_flex_l	wrist_dev_l
0.000000	-1.639295	-5.950838	86.960579	0.160778	0.875056	0.518567	14.128861	1.520435	11.575200	15.400177	0.268784	33.882253	-10.855446	0.000000	8.388430	-0.664405	1.688472	8.127458	0.141851	31.325719	2.103417	0.000000	0.501769	-0.110205	1.327107	0.931835	-0.146572	1.410051	0.824356	-0.267952	1.410051	0.573472	-0.267952	1.161219	0.465943	-0.224730	1.078275	0.286711	-0.170707	0.995330	3.584085	-1.246659	7.380972	0.000000	0.000000	26.704453	4.970844	-6.679913	63.909787	-4.404818	61.513886	31.158896	67.499193	-1.061924	8.379357	72.061749	0.045278	82.595248	25.520364	24.941535	1.516152	13.615063
0.016667	-1.198139	-5.695042	87.873044	0.158759	0.877161	0.518649	13.795911	1.690826	10.694796	15.332989	0.267611	33.308004	-11.120743	0.000000	8.217078	-0.866758	2.469221	8.222857	0.143516	30.905869	1.841515	0.000000	0.504893	-0.048783	1.050624	0.937637	-0.064881	1.116288	0.829488	-0.118611	1.116288	0.577042	-0.118611	0.919296	0.468844	-0.099478	0.853632	0.288496	-0.075565	0.787968	3.606399	-0.551842	5.843255	0.000000	0.000000	25.922586	4.093059	-7.995647	66.473633	-4.726903	62.031435	32.433094	72.589595	2.574154	5.395231	76.595788	-0.076678	90.965430	24.792548	43.420786	1.961139	2.011191
0.033333	-0.794704	-5.437779	88.673765	0.156884	0.879001	0.518895	13.475763	1.844079	9.809461	15.268756	0.266490	32.837390	-11.206862	0.000000	8.060982	-1.070593	3.029597	8.321544	0.145238	30.572451	1.777675	0.000000	0.502317	0.010037	0.809144	0.932852	0.013350	0.859716	0.825256	0.024405	0.859716	0.574098	0.024405	0.708001	0.466451	0.020468	0.657430	0.287024	0.015548	0.606858	3.587997	0.113544	4.500219	0.000000	0.000000	25.278239	3.355619	-8.809550	69.162242	-4.942226	62.957639	33.387756	76.287323	5.273927	2.809400	80.515968	-0.379125	96.909079	24.395710	58.120225	2.479639	-7.158710
0.050000	-0.427557	-5.179787	89.367695	0.155154	0.880597	0.519284	13.168062	1.981314	8.926350	15.208000	0.265430	32.461958	-11.131663	0.000000	7.917147	-1.274506	3.389465	8.422079	0.146993	30.316094	1.889242	0.000000	0.494666	0.066068	0.600586	0.918644	0.087871	0.638123	0.812687	0.160638	0.638123	0.565354	0.160638	0.525513	0.459347	0.134726	0.487976	0.282652	0.102340	0.450440	3.533349	0.747376	3.340279	0.000000	0.000000	24.755194	2.747897	-9.181869	71.936007	-5.059453	64.225057	34.051199	78.734472	7.127104	0.603703	83.865870	-0.836291	100.677478	24.292563	69.410115	3.046678	-14.118933
0.066667	-0.095267	-4.921804	89.959788	0.153569	0.881967	0.519791	12.872456	2.103653	8.052617	15.151239	0.264439	32.173251	-10.913009	0.000000	7.782576	-1.477091	3.568687	8.523022	0.148755	30.127425	2.153562	0.000000	0.482566	0.119122	0.422866	0.896174	0.158432	0.449295	0.792808	0.289633	0.449295	0.551525	0.289633	0.370008	0.448111	0.242913	0.343579	0.275738	0.184520	0.317149	3.446923	1.347530	2.351854	0.000000	0.000000	24.337231	2.259263	-9.172851	74.755325	-5.087251	65.766246	34.451737	80.073137	8.223399	-1.240020	86.689074	-1.422403	102.521911	24.445825	77.660724	3.637286	-19.093767
0.083333	0.203598	-4.664565	90.454999	0.152130	0.883132	0.520395	12.588592	2.212218	7.195415	15.098996	0.263527	31.962816	-10.568760	0.000000	7.654275	-1.676941	3.587128	8.622932	0.150499	29.997075	2.547981	0.000000	0.466644	0.169011	0.273902	0.866605	0.224784	0.291021	0.766649	0.410933	0.291021	0.533327	0.410933	0.239664	0.433326	0.344647	0.222545	0.266640	0.261798	0.205426	3.333192	1.911885	1.523359	0.000000	0.000000	24.008131	1.879089	-8.842742	77.580589	-5.034290	67.513766	34.617686	80.445415	8.652522	-2.739929	89.029160	-2.111691	102.693662	24.818209	83.242316	4.226489	-22.307504
0.100000	0.470472	-4.408809	90.858282	0.150836	0.884112	0.521071	12.316117	2.308131	6.361899	15.051789	0.262703	31.822198	-10.116777	0.000000	7.529247	-1.872652	3.464652	8.720369	0.152199	29.915672	3.049845	0.000000	0.447524	0.215548	0.151611	0.831098	0.286678	0.161086	0.735238	0.524082	0.161086	0.511476	0.524082	0.132659	0.415571	0.439545	0.123184	0.255715	0.333883	0.113708	3.196623	2.438317	0.843213	0.000000	0.000000	23.751675	1.596746	-8.251791	80.372194	-4.909236	69.400174	34.577359	79.993400	8.504186	-3.914185	90.929710	-2.878381	101.444016	25.372432	86.525158	4.789318	-23.984435
0.116667	0.706785	-4.155273	91.174591	0.149687	0.884927	0.521798	12.054679	2.392513	5.559223	15.010139	0.261976	31.742941	-9.574922	0.000000	7.404497	-2.062817	3.221122	8.813894	0.153831	29.873845	3.636498	0.000000	0.425834	0.258544	0.053910	0.790816	0.343864	0.057280	0.699602	0.628624	0.057280	0.486685	0.628624	0.047171	0.395429	0.527223	0.043802	0.243321	0.400485	0.040433	3.041687	2.924703	0.299833	0.000000	0.000000	23.551644	1.401605	-7.460244	83.090535	-4.720757	71.358030	34.359073	78.859189	7.868101	-4.780949	92.434304	-3.696703	99.024256	26.071208	87.879515	5.300798	-24.348852
0.133333	0.913970	-3.904694	91.408880	0.148684	0.885596	0.522552	11.803924	2.466486	4.794541	14.974567	0.261355	31.716592	-8.961055	0.000000	7.277029	-2.246032	2.876401	8.902066	0.155370	29.862223	4.285288	0.000000	0.402197	0.297813	-0.021282	0.746920	0.396091	-0.022612	0.660770	0.724103	-0.022612	0.459671	0.724103	-0.018622	0.373480	0.607300	-0.017292	0.229815	0.461312	-0.015962	2.872853	3.368921	-0.118365	0.000000	0.000000	23.391819	1.283038	-6.528350	85.696007	-4.477521	73.319892	33.991143	77.184876	6.833980	-5.358381	93.586522	-4.540885	95.685666	26.877253	87.675653	5.735959	-23.625045
0.150000	1.093459	-3.657809	91.566103	0.147827	0.886140	0.523311	11.563500	2.531172	4.075008	14.945592	0.260850	31.734694	-8.293037	0.000000	7.143846	-2.420889	2.450354	8.983444	0.156791	29.871434	4.973560	0.000000	0.377241	0.333167	-0.076049	0.700574	0.443112	-0.080802	0.619769	0.810061	-0.080802	0.431148	0.810061	-0.066543	0.350306	0.679393	-0.061790	0.215555	0.516075	-0.057037	2.694593	3.768847	-0.422963	0.000000	0.000000	23.255981	1.230414	-5.516354	88.149004	-4.188195	75.218318	33.501882	75.112557	5.491533	-5.664641	94.429946	-5.385154	91.679531	27.753282	86.283836	6.069829	-22.037306
